<?xml version="1.0" encoding="UTF-8" standalone="no"?>
<svg
   width="9.7864103"
   height="12.233"
   viewBox="0 0 9.7864103 12.233"
   fill="none"
   version="1.1"
   id="svg4"
   sodipodi:docname="copy.svg"
   inkscape:version="1.1.2 (b8e25be833, 2022-02-05)"
   xmlns:inkscape="http://www.inkscape.org/namespaces/inkscape"
   xmlns:sodipodi="http://sodipodi.sourceforge.net/DTD/sodipodi-0.dtd"
   xmlns="http://www.w3.org/2000/svg"
   xmlns:svg="http://www.w3.org/2000/svg">
  <defs
     id="defs8" />
  <sodipodi:namedview
     id="namedview6"
     pagecolor="#ffffff"
     bordercolor="#666666"
     borderopacity="1.0"
     inkscape:pageshadow="2"
     inkscape:pageopacity="0.0"
     inkscape:pagecheckerboard="0"
     showgrid="false"
     inkscape:zoom="63.923077"
     inkscape:cx="2.3152828"
     inkscape:cy="10.465704"
     inkscape:window-width="1920"
     inkscape:window-height="1017"
     inkscape:window-x="-8"
     inkscape:window-y="-8"
     inkscape:window-maximized="1"
     inkscape:current-layer="svg4"
     height="13.233px" />
  <path
     fill-rule="evenodd"
     clip-rule="evenodd"
     d="m 3.26214,0.01564383 c -0.59536,0 -1.08738,0.5032099 -1.08738,1.11208977 -7.7e-4,0.05527 0.00922,0.1101301 0.02937,0.16142 0.02014,0.05128 0.05006,0.09795 0.088,0.13731 0.03794,0.03936 0.08315,0.07061 0.133,0.09194 0.04985,0.02133 0.10336,0.03231 0.15739,0.03231 0.05404,0 0.10754,-0.01098 0.1574,-0.03231 0.04985,-0.02133 0.09506,-0.05258 0.133,-0.09194 0.03794,-0.03936 0.06785,-0.08603 0.088,-0.13731 0.02015,-0.05129 0.03014,-0.10615 0.02937,-0.16142 0,-0.16123587 0.11419,-0.27802387 0.27185,-0.27802387 h 5.43689 c 0.15765,0 0.27184,0.116788 0.27184,0.27802387 v 7.7846399 c 0,0.1612401 -0.11419,0.2780301 -0.27184,0.2780301 -0.05404,-7.9e-4 -0.10768,0.0094 -0.15783,0.03003 -0.05014,0.02061 -0.09577,0.05121 -0.13426,0.09001 -0.03848,0.0388 -0.06903,0.08503 -0.08989,0.13602 -0.02086,0.05098 -0.0316,0.10571 -0.0316,0.16098 0,0.05527 0.01074,0.10998 0.0316,0.16096 0.02086,0.05099 0.05141,0.09723 0.08989,0.13603 0.03849,0.03881 0.08412,0.06939 0.13426,0.09 0.05015,0.02061 0.10379,0.03081 0.15783,0.03001 0.59535,0 1.08738,-0.5031902 1.08738,-1.1120693 V 1.1277339 c 0,-0.60887987 -0.49203,-1.11208977 -1.08738,-1.11208977 z M 1.08738,2.2398337 C 0.492025,2.2398337 0,2.7430437 0,3.3519237 v 7.7846193 c 0,0.6089 0.492025,1.1121 1.08738,1.1121 h 5.43689 c 0.59536,0 1.08738,-0.5032 1.08738,-1.1121 V 3.3519237 c 0,-0.6088801 -0.49202,-1.1120901 -1.08738,-1.1120901 z m 0,0.83406 h 5.43689 c 0.15766,0 0.27185,0.11679 0.27185,0.27803 v 7.7846193 c 0,0.1613 -0.11419,0.278 -0.27185,0.278 H 1.08738 c -0.15765801,0 -0.271846,-0.1167 -0.271846,-0.278 V 3.3519237 c 0,-0.16124 0.11418799,-0.2780301 0.271846,-0.27803 z"
     fill="#374bff"
     id="path2" />
</svg>
