<?xml version="1.0" encoding="UTF-8" standalone="no"?>
<svg
   width="400"
   height="88"
   version="1.1"
   id="svg68"
   sodipodi:docname="sberbank2.svg"
   inkscape:version="1.1.2 (b8e25be833, 2022-02-05)"
   xmlns:inkscape="http://www.inkscape.org/namespaces/inkscape"
   xmlns:sodipodi="http://sodipodi.sourceforge.net/DTD/sodipodi-0.dtd"
   xmlns="http://www.w3.org/2000/svg"
   xmlns:svg="http://www.w3.org/2000/svg">
  <sodipodi:namedview
     id="namedview70"
     pagecolor="#ffffff"
     bordercolor="#666666"
     borderopacity="1.0"
     inkscape:pageshadow="2"
     inkscape:pageopacity="0.0"
     inkscape:pagecheckerboard="0"
     showgrid="false"
     height="81px"
     inkscape:zoom="2.715"
     inkscape:cx="190.7919"
     inkscape:cy="40.14733"
     inkscape:window-width="1920"
     inkscape:window-height="1017"
     inkscape:window-x="-8"
     inkscape:window-y="-8"
     inkscape:window-maximized="1"
     inkscape:current-layer="svg68" />
  <defs
     id="defs48">
    <linearGradient
       id="d"
       x1="5.8248"
       x2="10.351"
       y1="18.547001"
       y2="17.929001"
       gradientTransform="matrix(4.7565,0,0,2.8737,9.654,25.929558)"
       gradientUnits="userSpaceOnUse">
      <stop
         stop-color="#A3CD39"
         offset=".1226"
         id="stop2" />
      <stop
         stop-color="#86C339"
         offset=".2846"
         id="stop4" />
      <stop
         stop-color="#21A038"
         offset=".8693"
         id="stop6" />
    </linearGradient>
    <linearGradient
       id="e"
       x1="2.2788999"
       x2="6.2814999"
       y1="2.8980999"
       y2="1.9766001"
       gradientTransform="matrix(4.7565,0,0,2.8737,9.654,25.929558)"
       gradientUnits="userSpaceOnUse">
      <stop
         stop-color="#0FA8E0"
         offset=".0592"
         id="stop9" />
      <stop
         stop-color="#0099F9"
         offset=".5385"
         id="stop11" />
      <stop
         stop-color="#0291EB"
         offset=".9234"
         id="stop13" />
    </linearGradient>
    <linearGradient
       id="f"
       x1="2.8608999"
       x2="1.9219"
       y1="10.437"
       y2="5.9443998"
       gradientTransform="matrix(2.8737,0,0,4.7565,9.654,25.929558)"
       gradientUnits="userSpaceOnUse">
      <stop
         stop-color="#F2E913"
         offset=".1444"
         id="stop16" />
      <stop
         stop-color="#E7E518"
         offset=".3037"
         id="stop18" />
      <stop
         stop-color="#CADB26"
         offset=".5823"
         id="stop20" />
      <stop
         stop-color="#A3CD39"
         offset=".891"
         id="stop22" />
    </linearGradient>
    <linearGradient
       id="a"
       x1="1.8315001"
       x2="2.9828"
       y1="6.6950002"
       y2="2.1176"
       gradientTransform="matrix(2.9905,0,0,4.5708,9.654,25.929558)"
       gradientUnits="userSpaceOnUse">
      <stop
         stop-color="#A3CD39"
         offset=".0698"
         id="stop25" />
      <stop
         stop-color="#81C55F"
         offset=".2599"
         id="stop27" />
      <stop
         stop-color="#0FA8E0"
         offset=".9216"
         id="stop29" />
    </linearGradient>
    <linearGradient
       id="b"
       x1="2.0994"
       x2="6.4829998"
       y1="16.889"
       y2="17.961"
       gradientTransform="matrix(4.5708,0,0,2.9905,9.654,25.929558)"
       gradientUnits="userSpaceOnUse">
      <stop
         stop-color="#F2E913"
         offset=".1324"
         id="stop32" />
      <stop
         stop-color="#EBE716"
         offset=".2977"
         id="stop34" />
      <stop
         stop-color="#D9E01F"
         offset=".5306"
         id="stop36" />
      <stop
         stop-color="#BBD62D"
         offset=".8023"
         id="stop38" />
      <stop
         stop-color="#A3CD39"
         offset=".9829"
         id="stop40" />
    </linearGradient>
    <linearGradient
       id="c"
       x1="5.8242002"
       x2="9.6260004"
       y1="1.6952"
       y2="2.3792"
       gradientTransform="matrix(4.8418,0,0,2.8231,9.654,25.929558)"
       gradientUnits="userSpaceOnUse">
      <stop
         stop-color="#0291EB"
         offset=".0566"
         id="stop43" />
      <stop
         stop-color="#0C8ACB"
         offset=".79"
         id="stop45" />
    </linearGradient>
  </defs>
  <path
     d="m 100.59,37.474558 c -10.616,0 -14.367,5.6556 -14.367,10.906 0,7.6162 6.5775,9.1736 12.463,10.559 4.0966,0.98086 7.6152,1.8456 7.6152,4.7305 0,1.5002 -0.86567,3.9824 -6.8086,3.9824 -4.0389,-0.0577 -7.9619,-1.3288 -11.309,-3.6367 l -2.5957,5.8867 c 3.1157,2.4233 8.539,3.9805 13.848,3.9805 8.7701,0 14.482,-4.2704 14.482,-10.848 -0.0577,-7.443 -6.6945,-8.9997 -12.521,-10.385 -4.0966,-0.9809 -7.6152,-1.7888 -7.6152,-4.6738 0,-3.8081 4.6729,-4.2129 6.75,-4.2129 2.2502,-0.11535 4.4435,0.34708 6.4629,1.3281 l 5.6543,-4.1543 c -3.635,-2.1925 -7.7888,-3.4052 -12.059,-3.4629 z m 92.486,0.57422 v 35.254 h 7.6152 v -9.9824 h 7.5586 l 6.752,9.9824 8.1348,0.05664 -7.7305,-11.482 c 4.5582,-1.9618 7.2109,-5.9413 7.2109,-11.191 0,-7.7893 -5.7698,-12.637 -15.002,-12.637 h -14.539 z m 163.11,0 v 35.254 h 7.6172 v -14.195 h 4.7324 l 11.654,14.195 h 9.8086 l -15.578,-18.234 13.615,-17.02 h -8.7109 l -11.311,15.115 h -4.2109 v -15.115 h -7.6172 z m -196.86,0.05469 v 35.254 h 26.656 v -5.8867 h -19.041 v -8.998 h 16.271 v -5.8867 h -16.271 v -8.5957 h 11.078 l 7.9629,-5.8867 h -26.656 z m 128.6,0.002 -15.176,35.254 h 7.7324 l 3.0586,-7.0957 h 16.154 l 2.8848,7.0957 h 8.0215 l -14.887,-35.254 h -7.7891 z m 27.52,0 v 35.254 h 7.3281 v -23.078 l 17.482,23.078 h 7.2129 v -35.254 h -7.2715 v 23.137 l -17.539,-23.137 h -7.2129 z m -194.49,0.05273 v 35.254 h 17.656 c 8.7701,0 13.615,-3.4035 13.615,-9.5195 0.0577,-4.2697 -2.2484,-7.3859 -6.1719,-8.7129 h -0.002 l -0.3457,-0.11523 0.3457,-0.17383 c 2.8272,-1.5002 4.6153,-4.5004 4.5,-7.6738 0,-5.7121 -4.8464,-9.0586 -12.924,-9.0586 h -16.674 z m 117.75,0.0059 v 35.254 h 17.656 c 8.7701,0 13.617,-3.4035 13.617,-9.5195 0,-4.1543 -2.2503,-7.3292 -6.1738,-8.6562 l -0.34765,-0.17383 0.3457,-0.17188 c 2.8272,-1.5001 4.6155,-4.4427 4.5,-7.6738 0,-5.7121 -4.8464,-9.0586 -12.924,-9.0586 h -16.674 z m -110.14,5.8223 h 8.0781 c 5.1351,0 6.1738,2.3663 6.1738,4.3281 0,2.8272 -2.1349,4.3262 -6.1738,4.3262 h -8.0781 z m 125.83,0.0039 c 5.0774,0 6.1738,2.3663 6.1738,4.3281 0,2.8272 -2.1349,4.3281 -6.1738,4.3281 h -8.0781 v -8.5977 h 8.0781 v -0.05859 z m -53.715,0.002 h 6.752 c 4.9043,0 7.5586,2.4226 7.5586,6.75 0,4.3273 -2.6542,6.75 -7.5586,6.75 h -6.752 z m 91.049,2.1914 5.5391,14.137 h -11.424 l 5.8848,-14.137 z m -163.17,12.285 h 9.4629 c 4.3274,0 6.5195,1.4998 6.5195,4.5 0,3.0003 -2.1344,4.5 -6.5195,4.5 H 128.56 Z m 117.75,0.0039 h 9.4629 c 4.3274,0 6.5195,1.4998 6.5195,4.5 0,3.0003 -2.1344,4.502 -6.5195,4.502 H 246.31 Z"
     fill="#21a038"
     id="path50" />
  <path
     d="m 62.448,37.819558 c 1.3848,1.7886 2.5387,3.7504 3.5196,5.8275 l -26.657,19.675 -11.193,-7.0392 v -8.4239 l 11.136,6.9815 z"
     fill="#21a038"
     id="path52" />
  <path
     d="m 16.751,55.699558 c 0,-0.40391 0,-0.75008 0.05771,-1.154 l -6.7507,-0.34606 c 0,0.46159 -0.05771,0.98086 -0.05771,1.4424 0,8.0778 3.2888,15.405 8.597,20.714 l 4.7889,-4.789 c -4.0966,-4.0389 -6.6353,-9.6356 -6.6353,-15.867 z"
     fill="url(#f)"
     id="path54"
     style="fill:url(#f)" />
  <path
     d="m 39.253,33.199558 c 0.40388,0 0.75008,0 1.154,0.0577 l 0.3462,-6.7507 c -0.46158,0 -0.98087,-0.0577 -1.4425,-0.0577 -8.0777,0 -15.405,3.2888 -20.714,8.597 l 4.7889,4.7889 c 4.0389,-4.0966 9.6933,-6.6353 15.867,-6.6353 z"
     fill="url(#e)"
     id="path56"
     style="fill:url(#e)" />
  <path
     d="m 39.253,78.209558 c -0.40389,0 -0.75008,0 -1.154,-0.0577 l -0.3462,6.7507 c 0.46158,0 0.98087,0.0577 1.4425,0.0577 8.0777,0 15.405,-3.2888 20.714,-8.597 l -4.7889,-4.789 c -4.0389,4.1543 -9.6356,6.6353 -15.867,6.6353 z"
     fill="url(#d)"
     id="path58"
     style="fill:url(#d)" />
  <path
     d="m 51.947,37.129558 5.7121,-4.212 c -5.0197,-4.0388 -11.424,-6.5199 -18.406,-6.5199 v 6.7507 c 4.7312,0.0577 9.1163,1.5002 12.694,3.9812 z"
     fill="url(#c)"
     id="path60"
     style="fill:url(#c)" />
  <path
     d="m 68.563,55.699558 c 0,-1.7886 -0.1731,-3.5196 -0.46159,-5.2505 l -6.2891,4.6736 v 0.57697 c 0,6.6353 -2.8849,12.578 -7.4431,16.675 l 4.5582,5.0198 c 5.8852,-5.3082 9.6356,-13.097 9.6356,-21.695 z"
     fill="#21a038"
     id="path62" />
  <path
     d="m 39.253,78.209558 c -6.6353,0 -12.578,-2.8849 -16.675,-7.4431 l -5.0197,4.5582 c 5.3659,5.9429 13.097,9.6356 21.695,9.6356 z"
     fill="url(#b)"
     id="path64"
     style="fill:url(#b)" />
  <path
     d="m 24.194,39.029558 -4.5582,-5.0198 c -5.9429,5.3659 -9.6356,13.097 -9.6356,21.694 h 6.7507 c 0,-6.5776 2.8849,-12.578 7.4431,-16.675 z"
     fill="url(#a)"
     id="path66"
     style="fill:url(#a)" />
</svg>
