<svg width="40" height="42" viewBox="0 0 40 42" fill="none" xmlns="http://www.w3.org/2000/svg">
<path d="M15.782 12.9638C14.9325 12.1147 13.7218 11.7338 12.5391 11.9442C11.3561 12.155 10.3507 12.9298 9.84633 14.0201L0.341471 34.5678C-0.0891234 35.4724 -0.113748 36.5181 0.274778 37.4419C1.03079 38.9959 2.29483 40.2457 3.85745 40.9847C4.34355 41.2264 4.87844 41.3544 5.42133 41.3589C5.93831 41.3535 6.44858 41.2398 6.91898 41.0245L27.3464 31.573V31.5734C28.4363 31.0685 29.2115 30.0636 29.4219 28.8806C29.6322 27.6981 29.2518 26.4872 28.4022 25.6377L15.782 12.9638ZM5.91635 38.7791C5.6075 38.9259 5.24897 38.9259 4.94012 38.7791C3.87572 38.2921 3.00831 37.4578 2.48052 36.4126C2.36145 36.14 2.36145 35.8298 2.48052 35.5573L9.05757 21.4001L19.9393 32.2688L5.91635 38.7791ZM27.0656 28.392V28.3916C26.9873 28.8038 26.7196 29.1552 26.3436 29.3409L22.253 31.2258L10.1274 19.1002L12.0257 15.0096C12.215 14.6506 12.565 14.4035 12.9665 14.3453C13.3685 14.2871 13.774 14.4245 14.0574 14.7155L26.6768 27.3349C26.9754 27.6053 27.1204 28.0054 27.0649 28.4043L27.0656 28.392Z" fill="#1C32FF"/>
<path d="M24.3655 17.6699C24.2478 17.9658 24.2536 18.2966 24.382 18.5879C24.5101 18.8793 24.7495 19.1072 25.0472 19.2208C25.6635 19.4576 26.3555 19.1533 26.5977 18.5391C26.7046 18.2585 29.405 11.6142 38.6293 9.58213C38.9412 9.51499 39.2138 9.32609 39.3871 9.05798C39.5598 8.78987 39.6194 8.46356 39.5518 8.15158C39.3992 7.51151 38.7653 7.1091 38.1213 7.24249C27.5869 9.56872 24.4854 17.3893 24.3651 17.6699L24.3655 17.6699Z" fill="#1C32FF"/>
<path d="M21.4372 14.2873C21.7089 14.2815 21.9716 14.1875 22.1856 14.0201C25.3672 11.4665 27.0116 8.76605 27.0917 5.99901C27.1266 3.85991 26.2806 1.80044 24.7525 0.303703C24.2615 -0.135393 23.5073 -0.0933166 23.0678 0.397254C22.6287 0.888281 22.6707 1.64247 23.1618 2.08202C24.1711 3.1048 24.7418 4.48124 24.7526 5.91839C24.7526 7.96399 23.3489 10.0628 20.742 12.1481C20.4918 12.3455 20.3311 12.6347 20.2958 12.9511C20.2609 13.268 20.354 13.5854 20.5549 13.8325C20.7675 14.1068 21.0903 14.2734 21.4372 14.2872L21.4372 14.2873Z" fill="#1C32FF"/>
<path d="M35.8884 15.9052C34.6803 15.9289 33.5255 16.4061 32.6532 17.2418C32.4303 17.4629 32.3049 17.7637 32.3049 18.0774C32.3049 18.3912 32.4303 18.692 32.6532 18.9131C33.1209 19.3715 33.8697 19.3715 34.3375 18.9131C34.7721 18.4646 35.3817 18.2296 36.0048 18.2708C36.6279 18.312 37.2012 18.6253 37.5728 19.1271C37.8029 19.3482 38.1091 19.4726 38.4282 19.4744C38.9062 19.4681 39.3351 19.179 39.5208 18.7385C39.7061 18.2976 39.6135 17.7892 39.284 17.4423C38.409 16.4885 37.1825 15.933 35.8885 15.9053L35.8884 15.9052Z" fill="#1C32FF"/>
<path d="M38.1208 23.084C37.1276 23.8262 35.9244 24.2335 34.685 24.2478C33.4452 24.2625 32.2331 23.883 31.2228 23.1641C30.7121 22.7474 29.961 22.8186 29.5385 23.3248C29.333 23.567 29.2332 23.8812 29.2605 24.1976C29.2883 24.5141 29.4414 24.8064 29.6853 25.0091C31.0702 26.0677 32.7688 26.6322 34.5114 26.6134C36.2722 26.6026 37.9915 26.0776 39.4578 25.1027C40.0151 24.7334 40.1677 23.9823 39.7989 23.425C39.4296 22.8673 38.6786 22.7146 38.1208 23.0839L38.1208 23.084Z" fill="#1C32FF"/>
<path d="M19.7536 2.68419C19.199 2.32566 18.4591 2.48053 18.0956 3.03152C17.2778 4.26562 16.8629 5.72294 16.9081 7.20271C16.9538 8.68249 17.4573 10.1117 18.3499 11.2933C18.5508 11.5436 18.8449 11.7016 19.1645 11.732C19.4845 11.762 19.8028 11.6617 20.0476 11.4536C20.2938 11.2526 20.4491 10.9612 20.4791 10.6448C20.5096 10.3283 20.4115 10.0132 20.2079 9.76925C18.2294 7.36293 20.0073 4.42171 20.1009 4.34162C20.2768 4.07619 20.339 3.75168 20.2737 3.44014C20.2083 3.1286 20.0208 2.85646 19.7535 2.68413L19.7536 2.68419Z" fill="#1C32FF"/>
<path d="M15.5688 1.94856C15.0993 1.48126 14.3405 1.48126 13.8711 1.94856C12.8667 3.04474 12.3004 4.4721 12.2803 5.95909C12.3273 7.28131 12.9351 8.52114 13.9512 9.36805C14.1692 9.56008 14.4498 9.66481 14.7403 9.66213C15.0863 9.66392 15.4171 9.518 15.6489 9.26107C16.0795 8.76468 16.0316 8.01494 15.5424 7.57676C15.0465 7.19406 14.7318 6.62292 14.6732 5.99936C14.7108 5.1413 15.0465 4.32353 15.6225 3.68654C15.8562 3.45424 15.9833 3.13509 15.973 2.80565C15.9627 2.47622 15.8164 2.16603 15.5688 1.94849L15.5688 1.94856Z" fill="#1C32FF"/>
</svg>
