<svg width="35" height="25" viewBox="0 0 35 25" fill="none" xmlns="http://www.w3.org/2000/svg">
<path d="M26.6218 21.9121H24.769C24.4789 21.9121 24.248 21.6812 24.248 21.3911C24.248 21.101 24.4789 20.8701 24.769 20.8701H26.6218C28.4102 20.8701 30.0966 20.172 31.3695 18.9046C32.6368 17.6426 33.3298 15.9561 33.3298 14.1625C33.3298 10.5322 30.4887 7.58899 26.8581 7.46009C26.6004 7.4493 26.3908 7.25606 26.3587 6.99833C25.9559 3.6041 23.0719 1.04233 19.6508 1.04233C17.2393 1.04233 14.9945 2.34733 13.7916 4.44184C13.6682 4.66193 13.3996 4.7588 13.1633 4.67272C12.5617 4.45263 11.928 4.3397 11.2836 4.3397C8.32451 4.3397 5.91833 6.74563 5.91833 9.70494C5.91833 10.1185 5.96125 10.5158 6.04732 10.8812C6.08496 11.0315 6.04732 11.1926 5.95597 11.3161C5.85935 11.4396 5.7143 11.5148 5.55846 11.5201C4.36614 11.563 3.24385 12.0464 2.40593 12.8896C1.52504 13.7757 1.03648 14.952 1.03648 16.1977C1.03648 18.7755 3.13626 20.87 5.71411 20.87H8.21665C8.50676 20.87 8.73764 21.1009 8.73764 21.391C8.73764 21.6811 8.50676 21.912 8.21665 21.912H5.71411C2.56711 21.912 0 19.3503 0 16.1977C0 14.6723 0.596029 13.2386 1.67014 12.1537C2.55631 11.2675 3.70013 10.7037 4.93008 10.5317C4.89795 10.2632 4.87637 9.98389 4.87637 9.70455C4.87637 6.17081 7.74957 3.29737 11.2836 3.29737C11.9064 3.29737 12.5188 3.3832 13.1095 3.56062C14.5435 1.35343 17.0084 0 19.6505 0C23.4528 0 26.6807 2.73897 27.3251 6.44462C31.3101 6.8045 34.3713 10.1127 34.3713 14.1622C34.3713 16.2351 33.5657 18.1793 32.1048 19.6401C30.6334 21.1063 28.6838 21.9118 26.6216 21.9118L26.6218 21.9121Z" fill="#CECECE"/>
<path d="M21.3047 17.7875C21.1704 17.7875 21.0309 17.7338 20.9288 17.6264L16.541 13.0507L12.1533 17.6264C11.9545 17.8359 11.627 17.8412 11.4175 17.6425C11.2079 17.4437 11.2027 17.1162 11.4014 16.9067L16.1651 11.9389C16.3639 11.7349 16.7182 11.7349 16.917 11.9389L21.6806 16.9067C21.8794 17.1162 21.8739 17.4437 21.6646 17.6425C21.5624 17.7391 21.4335 17.7875 21.3047 17.7875H21.3047Z" fill="#CECECE"/>
<path d="M16.5416 25.0001C16.2515 25.0001 16.0206 24.7692 16.0206 24.4791V12.2988C16.0206 12.0087 16.2515 11.7778 16.5416 11.7778C16.8317 11.7778 17.0626 12.0087 17.0626 12.2988V24.4791C17.0626 24.7692 16.8262 25.0001 16.5416 25.0001Z" fill="#CECECE"/>
</svg>
